<svg xmlns="http://www.w3.org/2000/svg" viewBox="0 0 512 512">
  <defs>
    <linearGradient id="primary" x1="0%" y1="0%" x2="100%" y2="100%">
      <stop offset="0%" stop-color="#00f0c0" />
      <stop offset="100%" stop-color="#00d4aa" />
    </linearGradient>
    <linearGradient id="secondary" x1="0%" y1="0%" x2="100%" y2="100%">
      <stop offset="0%" stop-color="#6366f1" />
      <stop offset="100%" stop-color="#ec4899" />
    </linearGradient>
    <linearGradient id="bg" x1="0%" y1="0%" x2="100%" y2="100%">
      <stop offset="0%" stop-color="#12121a" />
      <stop offset="100%" stop-color="#0a0a0f" />
    </linearGradient>
    <filter id="glow" x="-20%" y="-20%" width="140%" height="140%">
      <feGaussianBlur stdDeviation="12" result="blur" />
      <feComposite in="SourceGraphic" in2="blur" operator="over" />
    </filter>
  </defs>

  <rect width="512" height="512" rx="112" fill="url(#bg)" stroke="#2a2a3a" stroke-width="6" />

  <path d="M 144 96 h 128 c 35.3 0 64 28.7 64 64 v 96 c 0 35.3 -28.7 64 -64 64 h -32 l -48 48 v -48 h -48 c -35.3 0 -64 -28.7 -64 -64 v -96 c 0 -35.3 28.7 -64 64 -64 z" fill="url(#secondary)" opacity="0.85" filter="url(#glow)"/>
  
  <path d="M 240 144 h 128 c 35.3 0 64 28.7 64 64 v 96 c 0 35.3 -28.7 64 -64 64 h -32 l -48 48 v -48 h -48 c -35.3 0 -64 -28.7 -64 -64 v -96 c 0 -35.3 28.7 -64 64 -64 z" fill="url(#primary)" filter="url(#glow)"/>
  
  <g fill="#12121a">
    <circle cx="264" cy="256" r="14" />
    <circle cx="304" cy="256" r="14" />
    <circle cx="344" cy="256" r="14" />
  </g>
</svg>
